<svg width="24" height="24" viewBox="0 0 24 24" fill="none" xmlns="http://www.w3.org/2000/svg">
<path d="M12 0.3C14.9693 0.3 17.6727 1.41487 19.7361 3.23967L16.7608 6.2149C15.4665 5.14695 13.8106 4.5 12 4.5C7.85812 4.5 4.5 7.85811 4.5 12C4.5 16.1419 7.85812 19.5 12 19.5C15.2655 19.5 18.0343 17.4098 19.0646 14.5001L19.2063 14.1H18.7818H12.3V9.9H22.5V9.9498H22.8H23.5177C23.6358 10.6161 23.7 11.3009 23.7 12C23.7 18.4613 18.4613 23.7 12 23.7C5.53869 23.7 0.3 18.4613 0.3 12C0.3 5.53868 5.53869 0.3 12 0.3Z" fill="#FFC107" stroke="#00352B" stroke-width="0.6"/>
<path d="M1.38367 6.4146L5.32627 9.306C6.39307 6.6648 8.97667 4.8 12.0001 4.8C13.8355 4.8 15.5053 5.4924 16.7767 6.6234L20.1709 3.2292C18.0277 1.2318 15.1609 0 12.0001 0C7.39087 0 3.39367 2.6022 1.38367 6.4146Z" fill="#FF3D00"/>
<path d="M12 24C15.0996 24 17.916 22.8138 20.0454 20.8848L16.3314 17.742C15.1266 18.6546 13.629 19.2 12 19.2C8.87882 19.2 6.22862 17.2098 5.23022 14.4324L1.31702 17.4474C3.30302 21.3336 7.33622 24 12 24Z" fill="#4CAF50"/>
<path d="M23.7666 9.64978H22.8V9.59998H12V14.4H18.7818C18.3066 15.7422 17.4432 16.8996 16.3296 17.7426C16.3302 17.742 16.3308 17.742 16.3314 17.7414L20.0454 20.8842C19.7826 21.123 24 18 24 12C24 11.1954 23.9172 10.41 23.7666 9.64978Z" fill="#1976D2"/>
</svg>
