<svg width="24" height="24" viewBox="0 0 24 24" fill="none" xmlns="http://www.w3.org/2000/svg">
<path d="M12.0087 14.1335C12.7121 14.1335 13.3956 14.3184 13.9979 14.6709L14.2419 14.8137C14.4269 14.9219 14.4595 15.1753 14.3078 15.3266L12.2243 17.4043C12.0963 17.5319 11.8888 17.5319 11.7608 17.4043L9.69074 15.3399C9.53972 15.1893 9.5712 14.9372 9.75463 14.8282L9.99592 14.6847C10.6037 14.3233 11.2959 14.1335 12.0087 14.1335Z" fill="#1F1F1F"/>
<path d="M12.0086 10.3168C13.7586 10.3168 15.4387 10.8974 16.8074 11.9724L17.0009 12.1243C17.1551 12.2455 17.1686 12.4737 17.0298 12.6121L15.786 13.8525C15.6709 13.9673 15.4889 13.9804 15.3584 13.8835L15.2068 13.7708C14.2824 13.0838 13.1677 12.7152 12.0086 12.7152C10.8425 12.7152 9.72125 13.0883 8.79375 13.7833L8.64197 13.897C8.51151 13.9947 8.3288 13.9819 8.21341 13.8668L6.97001 12.6269C6.83149 12.4887 6.84464 12.2611 6.99815 12.1397L7.19049 11.9876C8.56246 10.903 10.2503 10.3168 12.0086 10.3168Z" fill="#1F1F1F"/>
<path d="M12.0086 6.5C14.7858 6.5 17.4415 7.47963 19.5437 9.27524L19.7231 9.42851C19.8681 9.55237 19.8766 9.77314 19.7416 9.90777L18.5018 11.1441C18.3817 11.2639 18.1897 11.2723 18.0595 11.1635L17.906 11.0351C16.2509 9.65119 14.1765 8.89839 12.0086 8.89839C9.83329 8.89839 7.7522 9.65638 6.09465 11.049L5.94108 11.178C5.81094 11.2873 5.61855 11.2791 5.49822 11.1591L4.25858 9.92294C4.12376 9.78849 4.13206 9.5681 4.27661 9.44411L4.45535 9.29079C6.56008 7.48548 9.22322 6.5 12.0086 6.5Z" fill="#1F1F1F"/>
</svg>
